<svg width="100" height="100" viewBox="0 0 100 100" fill="none" xmlns="http://www.w3.org/2000/svg">
<path d="M100 50C100 77.6142 77.6142 100 50 100C22.3858 100 0 77.6142 0 50C0 22.3858 22.3858 0 50 0C77.6142 0 100 22.3858 100 50Z" fill="#161A30"/>
<path d="M61.14 65.4C59.1679 63.4337 57.8542 60.9042 57.38 58.16C56.8203 53.4152 56.6597 48.6317 56.9 43.86C56.874 43.7171 56.7987 43.5879 56.6873 43.4949C56.5758 43.4019 56.4352 43.3509 56.29 43.3509C56.1448 43.3509 56.0042 43.4019 55.8927 43.4949C55.7813 43.5879 55.706 43.7171 55.68 43.86C55.2911 48.7323 55.2911 53.6277 55.68 58.5C55.916 59.914 56.3 61.3 56.82 62.64C57.4449 63.8521 58.2102 64.9866 59.1 66.02C55.5 68.02 43.84 67.14 40.2 66.96C37 66.8 35.98 67.42 35.42 64.96C34.608 59.191 34.3801 53.3548 34.74 47.54C35.0824 45.3443 35.183 43.1176 35.04 40.9C34.9 39.84 33.86 40.34 33.94 41.14C33.2461 45.5344 32.8585 49.9718 32.78 54.42C32.732 58.326 32.98 62.23 33.52 66.1C33.6711 66.8448 34.0444 67.5264 34.5907 68.0548C35.137 68.5832 35.8306 68.9337 36.58 69.06C37.7115 69.2355 38.855 69.3225 40 69.32C44.872 69.776 49.776 69.824 54.66 69.46C57.66 69.1 62.82 67.82 61.14 65.4Z" fill="white"/>
<path d="M37.24 40.88C40.66 40.88 54.84 41.48 57.84 40.88C58.1999 40.8047 58.532 40.6317 58.8 40.38C59.5318 39.4771 60.0401 38.4142 60.2834 37.2777C60.5267 36.1412 60.4981 34.9633 60.2 33.84C59.12 30.28 55.78 30.3 52 30.3C48.22 30.3 44.36 30.62 41.7 30.5C39.04 30.38 35.26 30.5 35.1 30.5C32.16 30.18 28.8 32.22 27.48 37.72C26.731 42.3551 26.2502 47.0295 26.04 51.72C25.9274 56.6106 26.0676 61.5038 26.46 66.38C26.5254 66.5364 26.6453 66.6637 26.7975 66.7384C26.9496 66.813 27.1237 66.8299 27.2874 66.7859C27.4511 66.742 27.5933 66.6401 27.6876 66.4992C27.7818 66.3584 27.8218 66.1881 27.8 66.02C27.5555 59.4675 27.8431 52.906 28.66 46.4C29.22 42.4 29.12 36.66 31.82 33.8C32.1757 33.3136 32.6497 32.926 33.1971 32.674C33.7445 32.422 34.3472 32.314 34.948 32.36C35.5489 32.4061 36.128 32.6048 36.6306 32.9373C37.1332 33.2698 37.5426 33.725 37.82 34.26C38.1125 35.1137 38.1451 36.035 37.9137 36.9073C37.6823 37.7796 37.1972 38.5635 36.52 39.16C36.24 39.34 35.8 40.86 37.24 40.88ZM39.24 33.46C38.36 31.84 37.72 31.82 38 31.82C39.38 31.82 40.72 31.98 41.48 32.06C45.24 32.44 52.68 32.18 56.08 32.84C56.6282 32.9324 57.1272 33.2123 57.492 33.6318C57.8567 34.0512 58.0646 34.5843 58.08 35.14C58.52 39.46 56.38 38.74 55.68 38.82C51.3 39.28 42.3 39.5 37.9 39.6C38.6863 38.8113 39.2289 37.8129 39.4629 36.7241C39.697 35.6353 39.6127 34.5022 39.22 33.46H39.24Z" fill="white"/>
<path d="M43.08 45.16C42.2422 45.8439 41.5079 46.6456 40.9 47.54C39.62 49.38 39.72 49.88 39.1 49.54C39.0061 49.4624 38.8974 49.4046 38.7805 49.3702C38.6636 49.3359 38.541 49.3256 38.42 49.34C37.06 49.9 39.18 52.26 40.74 51.34C43.06 49.52 43 47.58 44 46.12C44.0872 45.9912 44.1276 45.8364 44.1144 45.6814C44.1013 45.5264 44.0354 45.3806 43.9278 45.2683C43.8202 45.156 43.6773 45.084 43.5231 45.0643C43.3688 45.0446 43.2124 45.0784 43.08 45.16ZM47.52 50.92C48.8573 50.884 50.1907 50.7773 51.52 50.6C51.7003 50.6 51.8733 50.5284 52.0008 50.4008C52.1284 50.2733 52.2 50.1003 52.2 49.92C52.5 48.04 44.58 48.58 44.46 49.58C44.34 50.58 47.2 50.88 47.52 50.92ZM42.4 55.02C41.22 56.82 40.66 57.28 39.46 59.28C39.2812 59.2465 39.1067 59.1929 38.94 59.12C38.9083 59.0453 38.8617 58.9778 38.8031 58.9216C38.7446 58.8654 38.6752 58.8216 38.5992 58.793C38.5233 58.7644 38.4423 58.7515 38.3612 58.7551C38.2801 58.7587 38.2006 58.7787 38.1274 58.8139C38.0543 58.8491 37.9891 58.8988 37.9357 58.96C37.8823 59.0211 37.8419 59.0925 37.8169 59.1697C37.7919 59.2469 37.7828 59.3284 37.7902 59.4093C37.7976 59.4901 37.8214 59.5686 37.86 59.64C38.118 60.214 38.516 60.716 39.02 61.1C41.02 62.5 42.9 57.86 43.64 55.62C43.707 55.4574 43.7094 55.2754 43.6467 55.1111C43.584 54.9468 43.4609 54.8126 43.3026 54.736C43.1443 54.6594 42.9627 54.6461 42.7949 54.6989C42.6272 54.7517 42.4859 54.8666 42.4 55.02ZM52 60.02C52.1237 59.8868 52.1925 59.7118 52.1925 59.53C52.1925 59.3482 52.1237 59.1732 52 59.04C51.58 58.44 49.42 58.26 48.94 58.28C47.4942 58.3714 46.0643 58.6332 44.68 59.06C44.46 59.36 44.36 59.6 44.56 59.82C44.76 60.04 44.3 59.94 47.24 60.6C48.8393 60.5307 50.4308 60.3367 52 60.02ZM73.72 32.44C72.54 28.88 67.84 30.7 66.5 32.64C66.2554 33.0001 66.1232 33.4247 66.12 33.86C62.86 34.3 62.78 39.24 62.72 42.3C62.86 46.72 62.72 47.96 63.58 47.88C64.44 47.8 64.22 47.08 64.84 42.42C65.46 37.76 65.04 36.42 66.14 35.3C66.3 35.3 66.14 44.12 66.52 45C65.98 47.12 65.62 57.76 65.48 60.66C65.3467 61.6413 65.3067 62.628 65.36 63.62C65.8126 65.3401 66.8891 66.8301 68.38 67.8C69.62 68.42 70.38 67.24 70.8 66.38C71.9114 65.0479 72.495 63.354 72.44 61.62C72.44 56.94 72.32 60.32 72.84 44.66C73.2496 43.5019 73.4789 42.2877 73.52 41.06C73.78 38.44 74.34 34.28 73.72 32.44ZM68.26 34.02C68.7836 33.5089 69.4317 33.1435 70.14 32.96C71.22 32.76 71.26 32.66 71.46 33.08C71.612 33.44 71.7 33.826 71.72 34.22C71.7967 37.4439 71.6832 40.6695 71.38 43.88C71.2 43.88 70.86 44.04 70.74 44.04H67.74C67.6 42.88 67.56 45.54 68.26 34.02ZM68.82 65.3C68.2791 64.7287 67.8695 64.0461 67.62 63.3C67.78 58.06 67.26 49.84 67.62 45.52C68.8493 45.64 70.0827 45.68 71.32 45.64L70.38 58.02C70.18 63.5 70.4 62.8 68.82 65.22V65.3Z" fill="white"/>
</svg>
